<?xml version="1.0" encoding="iso-8859-1"?>
<!-- Uploaded to: SVG Repo, www.svgrepo.com, Generator: SVG Repo Mixer Tools -->
<!DOCTYPE svg PUBLIC "-//W3C//DTD SVG 1.1//EN" "http://www.w3.org/Graphics/SVG/1.1/DTD/svg11.dtd">
<svg fill="#000000" height="800px" width="800px" version="1.1" id="Capa_1" xmlns="http://www.w3.org/2000/svg" xmlns:xlink="http://www.w3.org/1999/xlink" 
	 viewBox="0 0 213.738 213.738" xml:space="preserve">
<path d="M106.869,213.738c-0.61,0-1.221-0.111-1.801-0.335c-3.323-1.283-81.396-31.957-81.396-78.963V17.841
	c0-2.448,1.773-4.537,4.189-4.934l78.197-12.842c0.537-0.088,1.084-0.088,1.621,0l78.197,12.842
	c2.416,0.396,4.189,2.485,4.189,4.934V134.44c0,47.006-78.073,77.68-81.396,78.963C108.09,213.626,107.479,213.738,106.869,213.738z
	 M33.672,22.087V134.44c0,36.684,61.763,64.136,73.195,68.9c11.428-4.77,73.199-32.261,73.199-68.9V22.087l-73.197-12.021
	L33.672,22.087z M106.444,193.46c-0.692,0-1.353-0.141-1.952-0.396c-3.896-1.555-63.473-25.959-63.473-63.384V32.437
	c0-2.441,1.764-4.526,4.171-4.931l60.331-10.145c0.295-0.055,0.599-0.084,0.909-0.085c0.005-0.001,0.009,0,0.014,0
	s0.008-0.001,0.014,0c0.311,0.001,0.614,0.03,0.909,0.085l60.331,10.145c2.407,0.404,4.171,2.489,4.171,4.931v97.244
	c0,37.425-59.577,61.829-63.473,63.384C107.797,193.32,107.136,193.46,106.444,193.46z M111.444,100.326v80.439
	c15.194-7.211,50.425-26.576,50.425-51.084v-29.355H111.444z M51.019,100.326v29.355c0,24.506,35.228,43.871,50.425,51.084v-80.439
	H51.019z M111.444,90.326h50.425V36.667l-50.425-8.479V90.326z M51.019,90.326h50.425V28.188l-50.425,8.479V90.326z"/>
</svg>