<svg xmlns="http://www.w3.org/2000/svg" viewBox="0 0 96 96" width="96" height="96">
  <rect width="96" height="96" rx="16" fill="#0a0a0a"/>
  <circle cx="48" cy="48" r="36" fill="#1e1e1e" stroke="#00ffd1" stroke-width="2"/>
  <!-- Book/Learning icon -->
  <g fill="none" stroke="#00ffd1" stroke-width="3" stroke-linecap="round" stroke-linejoin="round">
    <!-- Open book -->
    <path d="M48 32 L48 68"/>
    <path d="M48 32 C40 30, 28 30, 24 34 L24 64 C28 60, 40 60, 48 64"/>
    <path d="M48 32 C56 30, 68 30, 72 34 L72 64 C68 60, 56 60, 48 64"/>
    <!-- Page lines left -->
    <line x1="30" y1="42" x2="42" y2="42"/>
    <line x1="30" y1="50" x2="42" y2="50"/>
    <!-- Page lines right -->
    <line x1="54" y1="42" x2="66" y2="42"/>
    <line x1="54" y1="50" x2="66" y2="50"/>
  </g>
</svg>
